<?xml version="1.0" standalone="no"?>
<!DOCTYPE svg PUBLIC "-//W3C//DTD SVG 20010904//EN"
 "http://www.w3.org/TR/2001/REC-SVG-20010904/DTD/svg10.dtd">
<svg version="1.0" xmlns="http://www.w3.org/2000/svg"
 width="733.000000pt" height="897.000000pt" viewBox="0 0 733.000000 897.000000"
 preserveAspectRatio="xMidYMid meet">

<g transform="translate(0.000000,897.000000) scale(0.100000,-0.100000)">
<path d="M1515 8953 c-21 -20 -378 -740 -529 -1065 -307 -662 -442 -1012 -473
-1228 -29 -207 -27 -860 4 -1204 l6 -69 -22 15 c-54 38 -299 247 -381 324
-116 111 -125 109 -115 -19 42 -591 114 -1105 205 -1475 100 -401 210 -622
512 -1024 49 -65 86 -118 83 -118 -8 0 -284 116 -493 207 -126 55 -177 72
-184 65 -15 -15 42 -147 213 -492 246 -494 480 -846 650 -977 104 -80 266
-174 491 -287 l227 -114 -78 -35 c-43 -20 -98 -44 -122 -53 -97 -38 -93 -50
39 -112 203 -96 430 -177 646 -232 110 -27 124 -33 165 -73 78 -74 125 -105
243 -161 134 -64 184 -76 325 -76 l105 0 50 41 49 42 27 -25 c166 -150 225
-197 336 -268 133 -84 201 -114 452 -200 328 -112 639 -180 829 -180 157 0
223 26 478 189 236 152 472 334 644 496 136 129 190 194 250 305 49 92 71 180
78 325 3 61 8 131 11 157 6 42 9 47 38 52 17 3 41 8 53 10 58 12 206 136 291
244 131 167 190 340 199 582 6 178 -8 277 -55 372 l-28 56 40 69 c91 159 219
455 325 752 60 166 161 494 161 521 0 33 -23 27 -99 -28 -71 -50 -358 -222
-371 -222 -3 0 7 84 22 188 55 387 63 756 20 932 -95 388 -394 988 -820 1648
-88 137 -129 192 -141 190 -14 -3 -17 -38 -23 -316 -3 -172 -9 -325 -13 -339
-6 -25 -8 -23 -42 37 -246 444 -832 961 -1653 1457 -242 146 -334 195 -347
182 -7 -7 8 -50 50 -142 33 -72 88 -217 123 -322 62 -188 161 -561 151 -571
-6 -6 -382 128 -692 246 -692 265 -1094 454 -1239 581 -139 123 -363 512 -560
974 -78 184 -85 194 -111 168z m3966 -4567 c83 -29 142 -69 243 -165 266 -255
523 -662 596 -944 29 -115 5 -178 -73 -194 -42 -9 -43 -27 -4 -75 48 -59 102
-146 117 -188 10 -31 8 -55 -24 -201 -69 -323 -111 -621 -141 -1019 -34 -440
-72 -512 -427 -821 -347 -301 -677 -516 -868 -565 -52 -13 -93 -15 -205 -11
-417 17 -1003 209 -1286 422 -169 127 -356 325 -407 432 -15 31 -42 46 -42 23
0 -20 40 -89 90 -155 27 -36 50 -72 50 -79 0 -38 -86 -75 -175 -75 -199 -1
-421 117 -615 327 -91 98 -197 256 -237 352 -86 207 -82 471 9 534 46 33 196
12 302 -41 73 -36 185 -124 235 -183 28 -33 47 -48 53 -42 6 6 5 18 -2 33 -13
22 -8 230 6 322 6 34 4 37 -17 37 -35 0 -86 34 -104 69 -16 31 -42 173 -70
381 -25 182 -31 570 -11 706 29 199 76 305 181 409 123 122 273 184 466 192
195 9 295 -21 490 -149 195 -128 337 -245 534 -443 241 -240 433 -489 567
-732 44 -81 63 -102 79 -86 6 6 15 102 20 229 34 839 103 1392 194 1550 20 34
94 100 143 128 88 50 227 60 333 22z m1166 -1412 c122 -76 168 -394 98 -671
-46 -179 -124 -314 -264 -454 -86 -85 -180 -145 -217 -137 -15 3 -18 12 -16
58 4 81 11 110 27 104 18 -7 64 18 97 53 106 112 151 316 87 397 -22 27 -88
51 -118 41 -15 -5 -18 -1 -14 22 10 59 35 124 53 133 30 16 72 12 109 -11 35
-21 52 -19 32 5 -17 21 -75 46 -106 46 l-26 0 23 41 c35 64 91 109 133 109 77
0 111 -77 101 -227 -3 -51 -2 -93 3 -93 12 0 21 64 21 155 0 96 -23 156 -69
179 -75 39 -141 4 -226 -119 -25 -37 34 206 66 272 52 108 130 145 206 97z
m-230 -654 c1 0 9 -14 18 -30 15 -29 15 -31 -10 -40 -15 -6 -33 -10 -41 -10
-18 0 -74 53 -74 70 0 17 42 28 75 19 16 -5 31 -9 32 -9z m-88 -94 c17 -21 63
-29 94 -17 32 12 34 3 16 -79 -10 -49 -11 -50 -48 -50 -20 0 -53 -9 -74 -19
-44 -22 -43 -26 -25 97 11 84 16 93 37 68z m52 -229 c-31 -46 -85 -97 -102
-97 -15 0 -19 22 -11 60 5 24 17 40 41 54 30 17 91 36 99 30 2 -1 -10 -23 -27
-47z"/>
<path d="M5834 3834 c12 -157 28 -258 45 -299 19 -43 116 -165 131 -165 19 0
10 22 -33 78 -24 31 -50 68 -58 82 -7 14 -25 106 -39 204 -18 125 -29 181 -39
184 -11 4 -12 -11 -7 -84z"/>
<path d="M5941 3223 c-86 -42 -173 -205 -390 -725 -168 -403 -313 -733 -389
-883 l-55 -110 -11 39 c-6 22 -17 41 -25 44 -11 4 -12 -1 -7 -19 4 -13 9 -60
11 -104 4 -72 6 -80 25 -83 14 -2 33 9 55 33 29 30 38 34 54 25 47 -25 93 -5
271 113 241 161 426 320 463 398 9 19 21 67 26 105 23 153 18 490 -8 606 -9
36 -7 46 7 60 31 31 105 28 156 -7 44 -30 66 -32 66 -6 0 32 -38 219 -65 319
-29 109 -55 162 -91 191 -32 25 -48 26 -93 4z m3 -626 c11 -117 8 -440 -4
-525 -7 -42 -19 -90 -27 -106 -47 -90 -296 -296 -557 -460 -94 -59 -110 -64
-139 -42 -17 13 -14 19 35 102 52 87 54 89 99 95 172 25 280 203 235 389 l-15
65 96 160 c128 213 254 405 263 400 4 -3 11 -38 14 -78z"/>
<path d="M2602 3053 c159 -319 158 -315 158 -484 0 -127 12 -174 26 -102 4 21
8 90 8 153 l1 115 -43 90 c-65 136 -124 235 -140 235 -7 0 -12 -3 -10 -7z"/>
<path d="M6190 2995 c0 -2 24 -42 54 -88 30 -45 60 -95 67 -110 12 -27 29 -37
29 -17 0 34 -119 220 -141 220 -5 0 -9 -2 -9 -5z"/>
<path d="M5206 2423 c-30 -54 -65 -122 -77 -151 -12 -29 -23 -51 -25 -49 -4 3
31 111 51 160 4 10 3 17 -4 17 -25 0 -113 -242 -149 -406 -16 -77 -17 -93 -6
-109 8 -10 15 -17 17 -14 3 2 14 38 26 79 35 118 118 322 182 448 65 129 63
122 50 122 -6 0 -35 -44 -65 -97z"/>
<path d="M2914 2306 c-17 -13 -19 -26 -18 -108 1 -78 22 -229 39 -288 4 -12
22 -15 82 -16 47 -1 101 -9 136 -20 l58 -19 33 -85 c39 -105 111 -231 187
-325 104 -130 134 -148 227 -139 91 10 348 -14 572 -52 194 -33 207 -34 238
-19 21 9 38 28 45 46 8 20 16 28 27 23 137 -55 162 -55 186 1 20 48 20 235 0
235 -11 0 -13 -17 -12 -72 l1 -73 -56 2 c-149 5 -402 149 -955 545 -128 91
-270 189 -318 217 -218 132 -410 192 -472 147z m494 -516 c86 -32 204 -79 262
-104 l105 -44 20 -59 c52 -148 123 -203 262 -203 64 0 123 18 155 47 16 14 28
11 152 -43 83 -36 136 -65 136 -73 0 -25 -42 -61 -70 -61 -15 0 -81 11 -146
24 -211 43 -325 57 -519 63 l-190 5 -49 47 c-80 76 -165 198 -227 326 -58 117
-65 135 -54 135 3 0 76 -27 163 -60z"/>
<path d="M4804 2288 c23 -85 56 -351 56 -459 0 -32 4 -59 9 -59 23 0 24 99 5
290 -10 98 -50 250 -66 250 -6 0 -8 -10 -4 -22z"/>
<path d="M2868 2294 c-24 -23 4 -358 32 -404 17 -28 19 -3 5 80 -8 47 -18 141
-22 208 -4 68 -11 120 -15 116z"/>
<path d="M2800 2172 c0 -95 12 -176 37 -259 17 -55 40 -75 29 -25 -20 91 -37
199 -42 280 -4 50 -11 92 -15 92 -5 0 -9 -40 -9 -88z"/>
<path d="M4042 2191 c2 -4 48 -38 102 -75 131 -89 230 -170 345 -283 91 -90
121 -110 88 -59 -58 87 -285 283 -436 375 -82 50 -106 60 -99 42z"/>
<path d="M4220 2130 c0 -5 9 -14 20 -20 82 -44 337 -276 392 -356 30 -44 57
-47 31 -3 -58 100 -206 243 -351 340 -74 49 -92 57 -92 39z"/>
<path d="M2170 1782 c-27 -28 -30 -36 -30 -97 0 -98 62 -261 134 -350 29 -36
48 -25 22 13 -41 63 -98 198 -112 264 -31 150 19 193 151 129 73 -36 137 -90
116 -98 -21 -8 -91 -73 -102 -95 -19 -35 0 -33 39 4 20 20 51 43 68 52 37 18
39 16 97 -74 32 -51 34 -57 20 -75 -8 -11 -26 -42 -39 -70 -34 -72 -32 -136 6
-203 40 -69 139 -169 220 -221 53 -34 72 -41 104 -39 48 4 73 37 62 81 -14 56
-105 117 -174 117 -12 0 -33 -11 -48 -23 l-27 -24 -48 53 c-70 77 -92 126 -84
182 7 45 43 132 56 132 3 0 14 -20 23 -45 10 -25 21 -45 25 -45 19 0 18 16 -7
74 -96 222 -246 370 -392 384 -44 4 -52 2 -80 -26z m646 -711 c23 -10 49 -29
58 -42 20 -29 21 -68 2 -75 -17 -7 -88 28 -140 69 l-39 31 23 18 c28 23 44 22
96 -1z"/>
<path d="M5975 1686 c-171 -70 -368 -189 -480 -289 -67 -60 -50 -72 22 -15
114 89 280 192 421 260 78 38 142 71 142 74 0 10 -29 1 -105 -30z"/>
<path d="M5722 1605 c-113 -55 -217 -124 -338 -225 -127 -107 -140 -113 -157
-66 -10 27 -21 12 -13 -18 7 -29 34 -40 67 -27 13 5 60 38 103 74 119 99 219
169 339 235 119 66 128 72 105 72 -8 0 -56 -20 -106 -45z"/>
<path d="M5004 1498 c1 -108 -14 -152 -56 -174 -29 -15 -29 -15 -25 13 5 37
-11 195 -23 225 -6 15 -7 -17 -3 -93 3 -64 3 -128 -1 -143 -6 -24 -10 -26 -59
-26 l-53 0 7 73 c7 79 1 175 -12 183 -5 3 -9 -19 -9 -48 0 -29 -5 -93 -10
-142 -9 -89 -7 -111 11 -101 5 3 44 7 86 8 136 4 173 45 173 189 0 45 -3 93
-6 106 -13 46 -20 19 -20 -70z"/>
<path d="M4614 1163 c1 -36 -1 -38 -31 -41 -17 -2 -100 8 -185 22 -181 30
-373 46 -550 46 -146 0 -177 -17 -40 -23 48 -1 -4 -4 -115 -5 -121 -1 -204 -6
-208 -12 -4 -6 31 -10 97 -11 57 -1 155 -4 218 -8 114 -6 113 -6 -100 -14
-239 -8 -300 -14 -300 -29 0 -7 33 -8 98 -3 53 4 207 8 342 9 193 2 244 5 242
15 -1 8 4 11 15 7 35 -10 147 -10 150 1 3 7 -43 15 -124 22 -204 18 -202 18
-143 19 73 2 289 -21 462 -49 126 -21 142 -22 166 -8 29 16 37 37 28 75 -10
37 -23 29 -22 -13z"/>
<path d="M4931 1151 c-31 -8 -38 -27 -12 -36 36 -11 73 -48 92 -92 10 -23 22
-43 27 -43 15 0 37 62 37 104 0 64 -58 91 -144 67z m93 -27 c11 -4 16 -19 16
-42 l0 -36 -27 31 c-16 17 -37 36 -48 42 -18 9 -17 10 12 11 17 0 38 -3 47 -6z"/>
<path d="M4592 954 c-53 -42 -72 -91 -72 -186 0 -135 40 -328 82 -397 54 -88
219 -111 375 -53 101 37 171 84 188 126 10 23 15 101 17 269 2 130 0 237 -3
237 -4 0 -13 -7 -20 -17 -53 -63 -246 -53 -414 22 -73 32 -111 32 -153 -1z
m218 -51 c41 -13 111 -29 155 -35 71 -9 87 -8 138 9 l57 20 0 -23 c0 -55 -107
-109 -246 -125 -87 -10 -154 -2 -221 26 -51 21 -133 77 -133 91 0 20 43 66 74
79 26 11 36 11 66 -2 19 -9 69 -26 110 -40z m-114 -160 c54 -25 70 -28 173
-28 l114 0 22 -35 c27 -44 45 -95 45 -131 0 -80 -198 -139 -305 -90 -23 10
-52 35 -68 57 -34 50 -100 211 -91 225 3 6 16 14 28 19 11 5 22 9 22 9 1 1 28
-11 60 -26z m412 -111 c44 -93 52 -157 24 -193 -52 -65 -251 -136 -350 -124
-116 14 -158 52 -190 172 -23 85 -46 222 -39 229 2 2 16 -29 31 -69 36 -99 89
-181 134 -209 30 -19 51 -23 117 -23 127 0 219 43 240 113 9 29 -18 118 -50
164 -30 44 -30 45 -7 51 24 6 49 -25 90 -111z"/>
<path d="M4611 736 c-8 -10 -9 -16 -1 -21 6 -3 7 -11 4 -17 -4 -7 -2 -8 5 -4
8 6 9 12 2 20 -7 9 -7 16 1 24 7 7 9 12 6 12 -3 0 -11 -6 -17 -14z"/>
<path d="M4670 736 c0 -2 8 -10 18 -17 15 -13 16 -12 3 4 -13 16 -21 21 -21
13z"/>
<path d="M4664 706 c1 -8 5 -18 8 -22 4 -3 5 1 4 10 -1 8 -5 18 -8 22 -4 3 -5
-1 -4 -10z"/>
<path d="M4715 692 c1 -15 -3 -31 -9 -35 -7 -6 -6 -7 4 -5 14 4 23 55 10 63
-4 2 -6 -8 -5 -23z"/>
<path d="M4744 686 c0 -27 20 -30 41 -6 13 14 13 17 1 17 -8 0 -14 -4 -13 -8
1 -4 -2 -7 -8 -8 -5 -1 -10 3 -10 8 0 5 -2 12 -5 15 -4 3 -6 -5 -6 -18z"/>
<path d="M4929 708 c-7 -23 -4 -35 7 -35 9 0 11 4 4 12 -5 7 -7 15 -3 18 3 4
3 7 0 7 -4 0 -7 -1 -8 -2z"/>
<path d="M4629 683 c-13 -16 -12 -17 4 -4 16 13 21 21 13 21 -2 0 -10 -8 -17
-17z"/>
<path d="M4811 687 c-8 -10 -7 -14 2 -14 8 0 14 6 14 14 0 7 -1 13 -2 13 -2 0
-8 -6 -14 -13z"/>
<path d="M4649 675 c-1 -3 -2 -8 -3 -12 -1 -5 -5 -13 -9 -20 -4 -6 -3 -15 3
-18 6 -4 10 -3 9 2 -1 4 0 10 1 13 5 13 8 40 4 40 -2 0 -5 -2 -5 -5z"/>
<path d="M4673 663 c4 -3 1 -13 -6 -22 -11 -14 -10 -14 5 -2 16 12 16 31 1 31
-4 0 -3 -3 0 -7z"/>
</g>
</svg>
