<?xml version="1.0" standalone="no"?>
<!DOCTYPE svg PUBLIC "-//W3C//DTD SVG 20010904//EN"
 "http://www.w3.org/TR/2001/REC-SVG-20010904/DTD/svg10.dtd">
<svg version="1.0" xmlns="http://www.w3.org/2000/svg"
 width="900.000000pt" height="842.000000pt" viewBox="0 0 900.000000 842.000000"
 preserveAspectRatio="xMidYMid meet">

<g transform="translate(0.000000,842.000000) scale(0.100000,-0.100000)">
<path d="M4436 8279 c-461 -30 -913 -147 -1325 -345 -955 -459 -1619 -1303
-1806 -2294 -61 -325 -61 -758 0 -1150 43 -271 107 -545 202 -863 l56 -188
-23 -104 -23 -104 -58 -50 c-82 -72 -177 -194 -218 -281 l-36 -75 2 -130 c4
-285 82 -569 215 -781 65 -105 197 -242 263 -273 119 -56 365 -121 520 -137
59 -6 77 -12 110 -40 45 -36 84 -54 120 -54 15 0 29 -9 36 -22 29 -55 157
-215 239 -297 158 -159 310 -265 470 -330 41 -16 93 -39 115 -50 21 -12 45
-21 52 -21 8 0 44 -14 81 -31 37 -17 96 -41 132 -54 36 -13 121 -50 190 -83
69 -33 158 -72 199 -86 94 -34 187 -75 324 -142 179 -88 303 -120 530 -134
261 -17 335 5 796 233 217 108 613 381 974 671 128 103 181 157 271 278 16 21
36 38 45 38 31 0 121 51 149 85 23 28 36 34 87 40 295 35 582 141 697 258 175
177 352 541 428 881 l22 98 -27 72 c-72 186 -178 358 -285 465 -58 59 -68 74
-74 115 -4 26 -22 75 -40 110 l-33 63 29 94 c81 269 167 662 202 919 112 833
-42 1543 -475 2195 -537 807 -1425 1350 -2421 1480 -249 32 -469 39 -712 24z
m614 -215 c648 -74 1396 -377 1827 -737 203 -171 362 -366 540 -662 69 -116
233 -409 233 -418 0 -3 -30 -22 -67 -42 -37 -20 -92 -56 -122 -80 -61 -47
-190 -178 -235 -238 -16 -21 -30 -36 -32 -34 -2 1 -10 50 -19 107 -19 132 -64
300 -108 410 -64 158 -66 160 -91 111 -28 -53 -105 -122 -173 -153 -178 -84
-405 -29 -585 140 -89 84 -143 158 -194 265 -112 238 -100 520 30 675 15 16
26 34 26 39 0 14 -256 154 -407 223 -707 319 -1423 373 -2079 155 -72 -24
-157 -55 -189 -70 -32 -14 -60 -23 -62 -21 -3 2 64 38 149 80 285 140 555 215
933 259 94 11 503 5 625 -9z m187 -449 c163 -50 257 -175 180 -241 -102 -87
-380 -30 -464 95 -83 124 80 207 284 146z m63 -774 c52 -11 147 -37 210 -58
l115 -38 -175 -7 c-231 -8 -414 -42 -610 -110 -107 -38 -266 -114 -349 -168
-35 -22 -67 -40 -73 -38 -5 2 -37 55 -70 118 l-61 114 23 18 c100 81 317 160
525 192 76 11 372 -3 465 -23z m-1262 -512 c50 -80 94 -153 98 -162 4 -11 -11
-40 -44 -84 -256 -348 -421 -744 -497 -1196 -18 -111 -34 -307 -24 -307 4 0 9
14 13 32 10 52 95 257 143 348 51 96 136 226 186 284 l33 39 34 -18 c46 -23
120 -76 120 -86 0 -4 -16 -31 -35 -60 -109 -161 -182 -388 -206 -635 -30 -328
59 -725 223 -991 11 -18 16 -33 11 -33 -25 0 -212 58 -310 95 -413 160 -785
439 -1046 786 -49 66 -66 96 -62 112 2 12 9 51 15 87 33 198 115 468 206 680
173 401 477 806 814 1087 79 66 231 176 235 170 1 -1 43 -68 93 -148z m3825
-228 c115 -317 177 -672 177 -1011 0 -497 -138 -1176 -366 -1800 -89 -245
-145 -413 -139 -418 11 -11 127 254 191 435 47 137 70 190 78 184 7 -6 20 -33
30 -61 26 -71 18 -119 -43 -285 -28 -77 -51 -147 -51 -155 0 -23 48 64 100
183 27 60 50 110 53 113 8 8 106 -105 157 -180 55 -82 122 -213 157 -305 l24
-64 -22 -96 c-85 -379 -307 -793 -488 -909 -78 -50 -194 -97 -325 -132 -93
-25 -287 -62 -293 -57 -1 1 32 52 74 112 78 115 118 184 110 191 -5 5 -166
-196 -254 -316 -43 -58 -106 -110 -119 -98 -2 3 23 52 57 109 138 233 339 664
326 702 -2 7 -61 -103 -132 -243 -193 -386 -303 -572 -429 -729 -30 -38 -115
-114 -211 -191 -168 -134 -360 -280 -367 -280 -2 0 13 51 34 112 44 135 91
362 112 548 19 166 38 495 30 525 -4 17 -1 24 13 28 16 4 15 5 -3 6 -12 1 -26
13 -36 34 -24 51 -94 133 -143 169 -24 18 -44 36 -45 39 0 3 19 11 43 18 165
47 221 86 450 311 164 160 463 481 505 542 26 37 0 42 -77 14 -40 -14 -149
-42 -244 -61 -405 -83 -681 -176 -957 -322 -276 -146 -555 -368 -697 -555
-101 -133 -96 -141 58 -94 189 57 469 108 746 137 l112 11 48 -35 c75 -55 173
-166 173 -195 0 -5 -44 -13 -97 -17 -214 -15 -664 -110 -698 -147 -7 -8 -3 -9
15 -4 141 35 723 136 786 136 27 0 16 -301 -21 -595 -29 -222 -76 -423 -137
-576 l-30 -76 -181 -120 c-448 -297 -784 -443 -1022 -443 -171 0 -422 52 -561
115 -154 71 -631 283 -755 335 -125 53 -126 53 -164 113 -135 208 -250 557
-310 940 -32 210 -32 203 8 211 48 8 363 34 520 42 192 9 227 19 113 29 -100
9 -282 1 -491 -20 -77 -8 -146 -15 -154 -15 -37 0 49 208 111 267 l33 32 145
-15 c262 -27 567 -79 828 -141 81 -19 116 -23 123 -16 16 16 6 27 -59 64 -33
18 -111 85 -187 159 -71 69 -175 160 -230 201 -343 255 -865 483 -1440 628
-247 63 -254 64 -262 45 -4 -10 20 -38 73 -87 119 -109 294 -292 479 -500 92
-104 186 -202 209 -219 57 -42 142 -83 209 -103 l56 -16 -33 -47 c-48 -67 -73
-121 -94 -199 l-17 -68 -73 -14 c-39 -7 -72 -17 -72 -22 0 -5 12 -7 28 -4 15
2 48 6 73 9 l46 5 6 -77 c8 -97 49 -321 88 -477 46 -185 97 -328 171 -475 37
-74 65 -136 64 -138 -7 -6 -223 80 -284 114 -158 89 -361 267 -485 427 -98
125 -123 169 -272 482 -126 266 -234 476 -256 499 -43 46 32 -135 207 -497 79
-165 142 -302 141 -304 -2 -2 -24 7 -48 20 -37 20 -61 49 -152 183 -60 87
-147 224 -194 304 -125 211 -125 211 -130 207 -6 -6 72 -179 125 -277 25 -47
86 -145 135 -218 l88 -133 -48 6 c-177 24 -365 73 -477 124 -151 68 -305 273
-389 517 -47 135 -76 279 -88 444 -13 160 -5 203 58 307 41 71 202 249 213
236 4 -4 12 -28 19 -53 18 -61 100 -235 107 -227 4 3 -12 66 -34 139 -22 73
-43 145 -46 161 -7 31 13 157 26 157 4 0 8 -5 8 -11 0 -26 137 -374 191 -486
59 -122 87 -158 67 -86 -6 21 -52 146 -103 278 -235 609 -360 1080 -432 1630
-24 187 -24 644 0 810 24 163 69 362 112 494 l36 110 37 -6 c119 -16 211 -72
336 -203 184 -194 354 -502 516 -935 132 -354 312 -639 560 -885 362 -360 807
-587 1337 -681 170 -31 520 -38 701 -15 686 88 1306 491 1648 1073 96 163 138
265 224 543 161 520 428 955 698 1139 97 65 231 124 271 118 9 -1 34 -55 64
-136z m-2248 -215 c440 -122 776 -516 980 -1148 l45 -141 -31 -61 c-146 -283
-393 -557 -684 -758 -79 -55 -220 -138 -234 -138 -4 0 5 48 20 108 88 349 47
757 -112 1100 -125 271 -361 515 -588 607 -160 65 -354 72 -513 19 -105 -36
-104 -31 16 84 203 195 436 298 781 346 64 9 262 -2 320 -18z m1094 -2968
c-48 -68 -176 -225 -295 -358 -111 -125 -131 -142 -196 -174 -59 -29 -92 -38
-173 -46 -225 -24 -554 -84 -742 -134 -29 -8 -53 -12 -53 -9 0 13 77 118 128
173 l57 62 57 -27 c185 -85 390 -28 486 134 24 41 27 56 27 141 l1 95 79 28
c158 56 530 144 618 146 l28 1 -22 -32z m-3907 -32 c84 -24 225 -70 313 -101
88 -31 168 -59 178 -62 14 -4 17 -18 17 -82 0 -120 52 -207 155 -260 113 -58
244 -45 352 35 l31 24 101 -106 c56 -58 101 -110 101 -116 0 -5 -12 -7 -27 -4
-109 22 -532 85 -718 106 -55 7 -115 18 -132 25 -94 39 -231 164 -336 305 -39
52 -103 137 -144 188 -43 54 -67 92 -59 92 8 0 84 -20 168 -44z"/>
<path d="M8101 2598 c-70 -107 -120 -199 -185 -344 -54 -121 -110 -300 -104
-331 2 -9 34 57 73 148 38 90 112 250 163 354 107 217 124 255 114 255 -5 0
-32 -37 -61 -82z"/>
<path d="M1290 2665 c0 -5 32 -90 72 -190 39 -99 104 -274 144 -390 87 -253
95 -274 101 -257 12 31 -56 283 -125 467 -65 175 -190 416 -192 370z"/>
<path d="M5955 2043 c-11 -2 -81 -16 -155 -30 -146 -28 -333 -85 -446 -138
-60 -27 -79 -32 -122 -27 -54 5 -54 5 -67 71 -9 42 -25 23 -25 -30 0 -55 17
-70 87 -76 55 -5 70 -2 150 32 126 55 263 99 463 152 96 25 177 47 179 49 5 5
-37 3 -64 -3z"/>
<path d="M4314 1928 c-11 -51 6 -49 -269 -29 -123 10 -247 12 -390 7 -314 -10
-339 -23 -45 -25 135 -1 326 -8 425 -16 99 -8 203 -15 232 -15 48 0 52 2 62
31 13 38 14 89 2 89 -4 0 -12 -19 -17 -42z"/>
<path d="M4570 1767 c0 -66 -24 -132 -68 -191 -54 -71 -82 -125 -82 -158 0
-36 43 -84 88 -99 20 -6 85 -36 143 -67 123 -63 141 -64 229 -7 50 32 88 49
165 71 42 13 68 65 60 124 -6 49 -47 120 -70 120 -16 0 -21 -35 -6 -45 5 -3
17 -25 27 -50 21 -56 7 -102 -35 -111 -50 -11 -105 -35 -156 -70 -69 -45 -109
-45 -186 1 -32 20 -89 48 -126 64 -109 44 -112 73 -23 193 60 80 80 131 80
209 0 52 -2 59 -20 59 -17 0 -20 -7 -20 -43z"/>
<path d="M5368 1473 c-92 -8 -47 -20 88 -25 100 -4 139 -9 145 -19 18 -28 8
-77 -31 -158 -22 -46 -39 -86 -36 -88 15 -15 116 162 116 204 0 38 -22 72 -53
83 -28 9 -126 11 -229 3z"/>
<path d="M4021 1377 c-70 -22 -121 -95 -107 -152 6 -23 114 -121 123 -111 3 2
-18 32 -45 65 -56 66 -57 83 -13 127 37 37 61 44 151 44 94 0 114 16 33 25
-32 3 -69 8 -83 10 -14 2 -40 -2 -59 -8z"/>
<path d="M5390 1299 c-116 -78 -260 -136 -414 -164 -64 -12 -100 -25 -125 -43
-46 -36 -109 -35 -182 0 -40 20 -76 28 -139 32 -103 7 -186 28 -263 67 -116
58 -107 42 78 -145 107 -108 169 -164 200 -177 73 -33 190 -44 313 -30 120 13
175 27 250 65 79 40 115 77 173 182 30 53 81 125 113 161 68 74 66 99 -4 52z"/>
<path d="M4660 704 c-82 -28 -170 -72 -170 -86 0 -12 2 -11 103 31 78 34 162
56 277 74 14 2 -11 5 -55 5 -62 1 -97 -4 -155 -24z"/>
<path d="M4840 685 c-71 -14 -226 -71 -235 -86 -8 -12 -10 -13 87 20 105 35
247 61 340 61 39 0 68 4 68 10 0 14 -181 11 -260 -5z"/>
<path d="M7328 3 c7 -3 16 -2 19 1 4 3 -2 6 -13 5 -11 0 -14 -3 -6 -6z"/>
</g>
</svg>
