<?xml version="1.0" standalone="no"?>
<!DOCTYPE svg PUBLIC "-//W3C//DTD SVG 20010904//EN"
 "http://www.w3.org/TR/2001/REC-SVG-20010904/DTD/svg10.dtd">
<svg version="1.0" xmlns="http://www.w3.org/2000/svg"
 width="907.000000pt" height="714.000000pt" viewBox="0 0 907.000000 714.000000"
 preserveAspectRatio="xMidYMid meet">

<g transform="translate(0.000000,714.000000) scale(0.100000,-0.100000)">
<path d="M4370 6999 c-36 -4 -104 -7 -152 -8 -155 -2 -382 -36 -523 -78 -87
-26 -270 -94 -280 -104 -5 -5 -19 -9 -31 -9 -31 0 -269 -108 -354 -162 -19
-12 -48 -29 -65 -38 -64 -35 -149 -91 -170 -110 -12 -11 -25 -20 -29 -20 -9 0
-152 -95 -176 -117 -23 -21 -169 -130 -225 -168 -27 -18 -158 -143 -291 -277
-206 -208 -269 -276 -370 -401 -8 -10 -25 -37 -37 -60 -11 -22 -68 -89 -125
-147 -57 -58 -110 -117 -118 -132 -8 -16 -19 -28 -24 -28 -6 0 -10 -6 -10 -13
0 -8 -11 -24 -24 -36 -14 -13 -32 -38 -41 -55 -20 -38 -31 -56 -76 -126 -35
-54 -45 -74 -108 -215 -18 -38 -36 -77 -42 -85 -19 -30 -36 -72 -101 -250 -11
-30 -26 -67 -33 -81 -8 -14 -24 -61 -37 -105 -20 -69 -22 -99 -21 -249 2 -230
12 -347 39 -449 l7 -29 -39 29 c-21 15 -64 49 -94 75 -56 47 -115 91 -205 153
-79 54 -306 175 -343 182 -18 4 -35 10 -38 15 -8 14 -41 10 -58 -7 -32 -31 -8
-187 40 -262 15 -22 22 -36 99 -177 21 -38 56 -96 77 -127 21 -31 38 -60 38
-63 0 -3 4 -11 10 -18 34 -42 57 -76 70 -102 13 -26 36 -60 70 -102 6 -7 10
-15 10 -19 0 -3 11 -20 25 -38 14 -17 29 -35 33 -41 4 -5 11 -17 14 -26 4 -9
41 -67 83 -129 42 -63 84 -127 92 -144 18 -35 56 -85 129 -171 28 -33 55 -67
60 -76 5 -9 46 -56 90 -105 129 -140 244 -280 333 -404 22 -30 44 -59 48 -65
9 -10 99 -193 114 -230 23 -57 53 -148 70 -210 34 -121 63 -175 95 -175 7 0
14 -3 16 -7 4 -11 75 -56 123 -80 104 -50 106 -52 94 -76 -14 -26 -12 -147 3
-200 17 -58 98 -127 224 -190 60 -30 127 -60 149 -67 22 -7 137 -50 255 -95
118 -46 285 -109 370 -140 85 -32 205 -81 267 -110 61 -29 135 -61 165 -70 29
-9 86 -33 127 -53 70 -34 75 -35 120 -23 52 13 227 98 536 260 116 61 305 154
420 207 502 231 656 313 715 381 38 45 119 187 156 275 14 35 66 134 116 220
86 152 119 199 104 147 -4 -13 -10 -70 -13 -126 -6 -99 -5 -102 20 -127 22
-22 35 -26 85 -26 48 0 84 10 185 50 69 27 155 65 192 85 37 19 73 35 81 35
28 0 199 72 227 96 16 13 32 24 37 24 14 0 111 104 137 148 13 23 29 42 34 42
5 0 9 7 9 15 0 8 5 15 10 15 6 0 13 8 17 18 8 22 96 156 106 160 4 2 7 9 7 15
0 7 20 44 45 82 63 101 278 534 315 635 24 66 58 137 93 191 40 61 215 236
297 296 30 22 61 47 69 56 7 10 18 17 23 17 5 0 53 37 107 82 54 46 111 90
127 98 16 8 47 30 69 50 22 19 56 46 75 60 73 54 176 136 205 162 17 15 34 28
39 28 5 0 27 16 50 36 23 20 82 67 131 105 134 104 328 279 355 321 13 21 42
57 65 80 79 83 123 158 92 158 -8 0 -22 9 -32 20 -22 25 -106 27 -205 5 -36
-8 -77 -14 -93 -15 -15 0 -50 -11 -79 -25 -28 -14 -58 -25 -65 -25 -14 0 -133
-30 -303 -75 -82 -22 -136 -38 -245 -70 -27 -9 -65 -18 -83 -21 -18 -4 -35
-11 -38 -15 -3 -5 -14 -9 -26 -9 -11 0 -34 -7 -51 -15 -18 -8 -115 -44 -217
-79 -221 -77 -292 -106 -368 -150 -31 -18 -88 -49 -125 -69 -64 -34 -68 -35
-61 -14 3 12 15 31 26 43 10 12 24 38 29 59 6 21 26 70 44 109 52 111 105 307
105 387 0 115 -25 210 -88 329 -43 82 -161 260 -241 365 -75 98 -231 330 -231
344 0 5 -6 14 -14 18 -8 4 -33 40 -57 78 -120 194 -263 364 -550 653 -125 127
-198 192 -282 250 -34 23 -84 58 -112 77 -86 61 -201 130 -277 167 -120 59
-188 88 -204 88 -8 0 -25 5 -37 12 -12 6 -58 19 -102 29 -44 10 -93 22 -110
28 -170 57 -339 72 -565 50z m350 -33 c47 -9 121 -25 165 -36 44 -12 89 -23
100 -25 11 -2 34 -8 50 -14 17 -6 80 -27 140 -47 109 -36 270 -108 281 -125 3
-5 14 -9 25 -9 10 0 19 -7 19 -15 0 -8 15 -22 33 -31 17 -10 55 -34 84 -56 29
-21 54 -38 57 -38 2 0 33 -19 68 -42 95 -63 208 -158 208 -174 0 -8 10 -18 23
-23 19 -8 207 -195 292 -292 119 -134 205 -247 260 -338 11 -19 32 -48 46 -65
15 -17 52 -71 84 -121 102 -159 128 -198 215 -313 47 -62 94 -129 106 -148 11
-18 29 -44 40 -56 45 -51 144 -226 144 -253 0 -9 8 -28 18 -42 24 -37 24 -262
0 -343 -9 -30 -22 -77 -29 -105 -7 -27 -15 -54 -19 -60 -4 -5 -24 -55 -46
-110 -21 -55 -46 -112 -56 -127 -10 -14 -18 -29 -18 -34 0 -16 -51 -73 -72
-80 -13 -4 -51 -26 -85 -50 -35 -24 -67 -44 -72 -44 -21 0 -222 -267 -298
-395 -42 -70 -138 -258 -178 -350 -12 -27 -36 -88 -73 -192 -57 -157 -66 -217
-34 -211 13 2 20 20 28 68 12 68 59 208 75 225 5 5 9 17 9 27 0 9 8 32 18 50
10 18 31 65 47 103 16 39 34 77 41 85 6 8 21 35 33 60 31 65 84 157 99 172 6
6 12 18 12 25 0 7 3 13 8 13 4 0 21 24 37 52 17 28 50 74 75 102 26 28 58 66
73 85 30 37 74 71 125 98 17 9 32 20 32 24 0 4 17 13 38 20 20 6 48 19 62 29
14 9 41 23 60 30 19 7 42 19 50 26 39 31 321 166 408 195 111 36 126 42 167
59 17 8 35 13 42 11 6 -1 14 3 18 9 3 5 19 10 35 10 16 0 31 4 34 9 3 5 22 12
42 16 20 3 44 10 53 15 9 5 36 13 61 19 25 5 140 37 255 70 207 60 241 69 401
110 182 47 296 60 321 39 20 -16 10 -59 -19 -90 -13 -13 -43 -48 -68 -78 -60
-71 -163 -180 -172 -180 -4 0 -22 -14 -40 -31 -43 -40 -201 -169 -294 -239
-40 -31 -81 -64 -91 -74 -10 -9 -43 -35 -73 -57 -89 -66 -109 -81 -188 -144
-41 -33 -95 -75 -121 -93 -25 -18 -63 -48 -83 -67 -21 -19 -42 -35 -47 -35 -5
0 -16 -6 -23 -13 -7 -7 -31 -26 -53 -42 -22 -16 -44 -34 -50 -39 -5 -6 -41
-37 -80 -68 -105 -86 -125 -104 -125 -117 0 -6 -6 -11 -13 -11 -7 0 -24 -15
-37 -32 -13 -18 -36 -46 -50 -61 -32 -36 -91 -146 -142 -267 -22 -52 -48 -111
-59 -130 -10 -19 -59 -118 -108 -220 -50 -102 -104 -207 -121 -235 -16 -27
-40 -67 -52 -89 -41 -69 -43 -73 -69 -112 -36 -55 -100 -152 -126 -189 -11
-17 -34 -43 -50 -57 -15 -14 -48 -44 -73 -66 -39 -35 -178 -102 -210 -102 -5
0 -53 -20 -107 -45 -54 -26 -107 -50 -118 -54 -89 -37 -152 -61 -161 -61 -6 0
-17 -7 -24 -15 -13 -16 -117 -19 -141 -4 -21 13 -16 270 6 301 8 13 15 32 15
43 0 12 16 48 36 81 65 108 105 186 99 192 -13 13 -68 -71 -163 -248 -19 -36
-46 -82 -59 -102 -14 -20 -32 -51 -42 -67 -9 -17 -40 -75 -70 -128 -66 -119
-171 -325 -171 -336 0 -23 -116 -157 -135 -157 -7 0 -20 -9 -31 -21 -15 -17
-146 -85 -269 -140 -11 -5 -27 -13 -35 -18 -8 -5 -33 -17 -55 -26 -36 -16
-218 -105 -270 -132 -101 -53 -594 -293 -603 -293 -7 0 -33 -15 -59 -33 -66
-47 -212 -123 -251 -132 -44 -9 -106 3 -133 26 -12 10 -33 19 -47 19 -13 0
-41 9 -61 19 -81 43 -208 100 -234 107 -15 3 -30 10 -33 15 -3 5 -15 9 -28 9
-12 0 -26 4 -31 8 -9 8 -59 28 -258 102 -45 17 -109 42 -142 55 -33 13 -71 27
-85 30 -14 4 -29 11 -35 15 -5 4 -69 28 -142 53 -174 60 -337 141 -389 193
-32 31 -44 54 -53 93 -17 80 -14 154 8 182 10 13 16 29 14 36 -2 6 10 60 28
120 33 109 40 184 24 266 -6 32 -5 36 9 31 11 -4 16 -1 16 10 0 28 41 140 57
156 13 13 13 10 -1 -24 -18 -43 -21 -86 -7 -86 5 0 15 16 21 35 6 19 16 35 21
35 5 0 9 9 9 20 0 11 7 20 15 20 19 0 19 -8 0 -53 -8 -20 -15 -53 -14 -74 l0
-38 25 50 c13 27 29 54 35 60 8 7 8 4 0 -12 -14 -27 -15 -133 -1 -133 5 0 12
11 15 25 3 14 7 36 10 50 6 29 13 30 42 7 l21 -17 -21 -67 c-12 -37 -26 -68
-30 -68 -5 0 -29 16 -54 35 -47 36 -73 44 -73 23 0 -15 112 -92 181 -125 76
-37 187 -53 219 -33 21 13 12 18 -65 30 -38 6 -74 15 -81 20 -6 6 -14 6 -19 2
-11 -10 5 91 16 102 5 6 18 1 32 -12 12 -11 40 -28 62 -38 22 -9 46 -21 53
-27 7 -6 27 -12 43 -14 33 -3 212 37 248 56 45 25 30 3 -29 -39 -129 -94 -29
-56 111 42 143 100 248 196 276 252 39 81 78 91 265 69 59 -7 101 -7 131 0 41
9 59 5 203 -41 88 -28 170 -53 184 -57 14 -3 41 -10 60 -15 199 -53 326 -60
460 -25 14 3 41 9 60 12 19 3 46 13 60 23 14 9 41 23 60 30 72 29 135 67 138
83 5 24 -16 21 -52 -7 -44 -33 -96 -58 -96 -46 0 5 4 10 8 10 5 0 43 43 86 95
42 52 81 95 86 95 15 0 110 -43 110 -49 0 -3 -16 -17 -35 -31 -19 -14 -35 -28
-35 -32 0 -17 53 -6 93 19 55 35 147 123 147 142 0 7 7 19 17 26 21 16 8 39
-15 26 -9 -5 -35 -33 -57 -61 -49 -63 -87 -87 -105 -65 -7 9 -30 25 -51 37
-31 17 -38 26 -33 42 13 43 29 51 74 36 49 -16 64 -6 30 21 l-25 20 25 -7 c14
-3 40 -13 59 -20 77 -32 83 -8 7 32 -30 16 -54 30 -52 31 1 2 26 -4 55 -13 29
-8 55 -13 57 -11 6 5 -48 38 -93 56 -18 7 -33 16 -33 19 0 3 10 19 23 36 13
17 26 38 29 47 8 20 89 32 140 20 37 -9 84 -37 108 -66 10 -12 10 -15 -4 -15
-20 0 -20 -18 0 -81 21 -64 38 -64 32 1 -5 48 4 66 16 35 9 -24 24 -17 19 9
-3 13 5 45 16 71 12 26 21 53 21 59 0 7 16 18 35 25 19 7 35 19 35 27 0 8 9
14 21 14 11 0 18 4 14 9 -3 5 2 11 11 13 9 2 18 14 19 28 4 30 -41 62 -92 66
-18 2 -49 8 -70 14 -49 15 -154 37 -173 37 -8 1 -44 7 -80 14 -77 15 -237 17
-297 2 -56 -14 -393 -184 -434 -219 -8 -8 -19 -14 -23 -14 -4 0 -33 -17 -64
-37 -31 -20 -84 -51 -117 -68 -63 -33 -202 -117 -320 -194 -38 -25 -86 -54
-105 -64 -19 -11 -48 -30 -65 -43 -91 -73 -95 -74 -192 -70 -113 5 -181 16
-191 30 -23 30 -82 230 -82 278 0 75 -11 129 -24 125 -6 -2 -12 -28 -13 -58
-6 -232 -5 -271 5 -281 9 -9 12 1 12 42 l1 55 15 -40 c8 -22 19 -52 23 -66 5
-14 14 -35 19 -46 9 -17 7 -22 -13 -33 -14 -8 -37 -10 -57 -6 -31 6 -183 51
-273 81 -22 7 -67 21 -100 30 -112 33 -220 66 -280 85 -60 20 -127 37 -265 65
-41 9 -94 20 -118 26 -31 6 -49 6 -65 -3 -34 -18 -159 -128 -190 -167 -36 -45
-52 -54 -74 -43 -10 6 -38 13 -62 17 -53 9 -157 68 -166 94 -3 11 -2 28 4 38
5 10 17 54 25 98 9 44 21 100 26 125 13 56 15 133 6 148 -16 26 -26 9 -26 -40
0 -29 -7 -78 -15 -108 -8 -30 -15 -68 -15 -83 0 -18 -4 -27 -12 -25 -17 6
-142 222 -257 443 -20 39 -53 96 -74 128 -49 76 -150 276 -178 352 -12 33 -25
64 -30 70 -5 5 -9 17 -9 26 0 9 -7 30 -15 45 -8 16 -15 39 -15 51 0 12 -4 24
-9 27 -5 4 -12 25 -16 49 -4 23 -18 65 -31 94 -13 28 -24 60 -24 71 0 10 -4
32 -10 48 -28 83 -48 253 -45 394 4 164 16 228 73 385 117 316 222 541 336
715 84 128 452 511 561 584 36 24 96 67 135 99 9 7 51 39 95 71 88 66 87 87
-2 32 -57 -34 -255 -178 -322 -233 l-35 -28 24 35 c39 55 175 206 281 310 211
209 289 278 415 365 31 22 71 52 88 66 17 14 69 51 116 82 47 31 90 61 97 67
7 5 14 10 16 10 3 0 32 18 65 40 84 56 374 202 447 224 33 10 78 27 100 36 22
10 65 27 95 38 30 11 100 37 155 57 96 35 125 42 260 65 120 20 214 29 405 36
107 3 196 7 197 8 11 9 113 4 183 -8z m-4420 -3119 c14 -8 69 -37 122 -65 117
-62 188 -107 282 -178 39 -30 78 -60 87 -67 77 -57 174 -148 189 -177 21 -42
52 -141 45 -148 -2 -3 6 -26 19 -51 34 -65 56 -117 56 -131 0 -6 14 -38 30
-72 17 -33 30 -67 29 -77 0 -14 -1 -14 -7 0 -17 39 -248 281 -414 433 -48 44
-158 133 -240 194 -58 42 -76 16 -39 -56 25 -47 151 -206 158 -199 3 3 -20 47
-52 97 -31 51 -54 94 -52 97 9 8 159 -116 295 -246 126 -119 172 -178 172
-223 0 -35 75 -179 121 -233 36 -43 103 -193 134 -305 4 -14 11 -30 16 -36 5
-6 25 -42 45 -80 43 -82 104 -174 116 -174 4 0 8 -7 8 -15 0 -17 83 -105 99
-105 19 0 12 21 -16 55 -104 122 -189 263 -234 388 -16 43 -35 88 -44 100 -8
12 -15 29 -15 38 0 10 -11 40 -25 67 -14 28 -25 54 -25 59 0 5 -13 22 -30 38
-16 16 -30 34 -30 41 0 7 -11 25 -24 41 -21 25 -88 153 -80 153 7 0 107 -106
142 -150 20 -25 54 -65 75 -90 21 -25 45 -61 53 -80 8 -19 32 -62 52 -95 21
-33 43 -69 49 -80 20 -33 63 -127 63 -136 0 -5 5 -9 10 -9 6 0 10 -5 10 -10 0
-6 18 -38 40 -72 23 -33 48 -75 57 -92 9 -17 19 -33 23 -36 3 -3 19 -31 34
-62 24 -48 27 -65 21 -105 -6 -44 -4 -50 22 -75 34 -32 106 -71 173 -93 68
-23 93 -63 96 -162 3 -74 -2 -85 -30 -58 -8 8 -17 15 -21 15 -3 0 -18 11 -33
25 -25 24 -27 30 -25 103 l2 77 -20 -24 c-14 -17 -19 -39 -19 -86 l0 -64 125
-96 c109 -84 175 -147 175 -168 0 -4 -18 -7 -40 -7 -40 0 -98 31 -177 96 -58
47 -36 3 28 -58 72 -67 125 -97 168 -96 17 1 34 -1 37 -4 7 -8 -43 -189 -55
-201 -19 -19 -198 81 -252 140 -26 27 -45 72 -55 123 -3 14 -12 45 -21 70 -9
25 -24 68 -33 95 -32 93 -91 207 -154 299 -35 50 -65 96 -67 102 -4 12 -39 58
-81 109 -16 18 -28 35 -28 39 0 11 -90 117 -144 170 -29 28 -83 87 -120 131
-37 44 -79 94 -93 110 -30 36 -55 71 -159 229 -135 203 -149 224 -165 248 -9
12 -38 56 -65 97 -27 41 -61 93 -76 115 -15 23 -34 57 -43 76 -9 19 -20 37
-24 40 -11 6 -107 165 -152 249 -59 111 -65 125 -84 189 -14 49 -16 67 -7 87
13 29 51 33 92 12z m4760 -1393 c47 -4 88 -8 91 -10 11 -7 -18 -109 -46 -164
l-17 -34 -15 27 c-19 37 -60 36 -96 -1 -47 -49 -31 -112 29 -112 l35 0 -23
-32 c-13 -18 -29 -43 -35 -56 -26 -48 -191 -258 -265 -337 -72 -76 -82 -83
-145 -101 -86 -24 -278 -25 -368 -1 -33 9 -82 21 -110 28 -76 18 -146 39 -183
56 -18 8 -61 24 -95 35 -84 27 -92 32 -75 45 33 26 148 103 154 103 5 0 164
102 266 172 15 10 30 18 33 18 3 0 34 19 68 41 34 23 71 45 82 50 11 5 29 15
39 21 110 71 423 230 498 253 24 7 54 12 68 9 14 -2 63 -6 110 -10z m-2792
-439 c45 -8 86 -16 91 -19 4 -3 43 -12 87 -21 85 -17 169 -40 304 -86 47 -16
112 -35 145 -43 33 -8 103 -27 155 -43 89 -27 96 -31 112 -65 10 -20 27 -43
39 -52 27 -18 22 -26 -54 -84 -78 -61 -290 -172 -327 -172 -10 0 -47 -9 -82
-20 -67 -21 -83 -19 -159 14 -40 17 -230 200 -269 259 -14 20 -32 39 -40 42
-8 3 -40 40 -70 82 -30 42 -72 95 -93 118 l-37 43 35 31 c41 35 50 36 163 16z
m-276 -300 c14 -27 32 -68 41 -90 8 -22 22 -58 30 -80 9 -22 19 -56 23 -75 l6
-35 -73 70 -74 70 4 81 c2 60 -1 89 -13 112 -9 17 -16 35 -16 39 0 17 49 -45
72 -92z m438 -219 c0 -3 -4 -8 -10 -11 -5 -3 -10 -1 -10 4 0 6 5 11 10 11 6 0
10 -2 10 -4z m-30 -91 c0 -8 -4 -15 -10 -15 -5 0 -7 7 -4 15 4 8 8 15 10 15 2
0 4 -7 4 -15z"/>
<path d="M8465 4260 c-11 -4 -51 -20 -90 -35 -156 -60 -631 -283 -695 -326
-14 -9 -79 -45 -145 -79 -125 -66 -172 -93 -258 -149 -29 -18 -86 -55 -128
-81 -81 -51 -306 -216 -348 -257 -15 -14 -38 -29 -53 -35 -15 -5 -36 -24 -47
-41 -11 -18 -27 -41 -34 -52 -54 -78 -182 -310 -284 -515 -27 -52 -51 -97 -54
-100 -4 -3 -10 -16 -14 -30 -4 -14 -22 -56 -40 -95 -64 -138 -85 -191 -85
-217 0 -24 51 -96 73 -104 36 -12 34 -3 -16 85 -16 28 -16 34 -3 66 14 32 18
35 43 29 27 -7 93 -66 93 -83 0 -20 -97 -211 -119 -234 -4 -4 -52 -9 -107 -10
-81 -3 -106 -7 -139 -26 -58 -33 -79 -55 -111 -119 -16 -31 -36 -63 -44 -69
-13 -11 -13 -14 0 -23 38 -25 243 5 304 45 37 24 136 160 136 186 0 6 9 24 20
39 11 16 27 44 35 62 9 18 19 40 24 48 21 35 41 90 41 113 0 26 -62 85 -114
108 -14 7 -26 15 -26 19 0 4 11 28 25 54 14 26 25 51 25 57 0 5 23 56 50 114
28 58 50 109 50 114 0 6 3 12 8 14 4 3 8 -31 9 -76 3 -87 18 -125 64 -159 15
-11 35 -18 45 -16 16 3 13 9 -18 44 -48 52 -55 73 -57 164 -2 82 7 116 62 227
29 58 123 199 167 251 48 56 150 -70 150 -186 0 -34 -40 -165 -64 -212 -24
-46 -58 -149 -54 -161 7 -20 83 129 127 249 38 106 40 114 30 173 -5 34 -18
78 -28 98 -19 36 -83 81 -116 81 -15 0 -14 3 3 28 19 26 26 33 80 82 13 12 65
50 115 84 51 35 132 91 182 124 49 34 95 62 103 62 12 0 14 -19 10 -105 -2
-64 -8 -109 -16 -117 -6 -6 -12 -23 -12 -35 0 -13 -6 -34 -14 -46 -8 -12 -17
-38 -20 -58 -4 -21 -25 -81 -47 -135 -23 -55 -51 -129 -64 -165 -12 -36 -34
-88 -49 -115 -14 -27 -26 -55 -26 -62 0 -8 -6 -26 -14 -40 -30 -55 -76 -163
-76 -177 0 -7 -6 -18 -13 -22 -8 -4 -22 -21 -33 -38 -30 -48 -93 -123 -178
-209 -43 -45 -85 -91 -93 -103 -12 -19 -18 -20 -34 -10 -27 17 -36 2 -49 -78
-11 -70 -7 -120 10 -110 4 3 16 36 26 74 14 55 24 72 48 89 67 46 237 221 284
292 54 82 172 321 172 349 0 5 8 25 19 43 10 18 32 69 49 113 17 44 44 115 61
157 47 122 113 348 118 408 3 30 0 73 -6 94 -12 46 -12 46 104 111 39 22 91
54 116 70 24 17 58 37 74 45 17 8 71 37 120 66 50 28 119 65 155 81 110 52
322 153 374 179 79 39 197 87 202 81 15 -15 -236 -258 -453 -437 -30 -24 -50
-46 -44 -48 9 -3 135 78 151 98 3 3 41 34 85 69 96 77 365 341 365 358 0 15
-44 16 -75 3z m-2235 -2301 c0 -16 -59 -98 -78 -108 -19 -10 -150 -46 -200
-55 -43 -7 -41 5 13 78 56 77 92 95 188 96 48 0 77 -4 77 -11z"/>
<path d="M3052 4088 c-7 -7 -12 -20 -12 -31 0 -10 -5 -28 -12 -40 -19 -37 -10
-310 17 -467 16 -95 40 -172 57 -181 10 -5 18 -16 18 -23 0 -8 6 -19 13 -25
15 -12 12 7 -32 204 -31 135 -45 393 -28 518 7 57 2 68 -21 45z"/>
<path d="M5460 3187 c0 -4 15 -30 33 -59 58 -91 190 -377 159 -343 -5 6 -26
42 -47 80 -20 39 -43 77 -50 85 -6 8 -23 35 -37 60 -28 49 -65 87 -74 77 -4
-3 11 -34 33 -69 22 -35 46 -76 54 -93 8 -16 23 -43 33 -60 16 -27 14 -26 -17
8 -57 62 -60 42 -4 -40 29 -43 81 -140 117 -215 36 -76 71 -138 77 -138 25 0
16 30 -53 173 -23 49 -23 49 -4 70 25 26 25 21 -6 98 -60 150 -146 308 -189
349 -14 13 -25 21 -25 17z"/>
<path d="M4122 3074 c-112 -57 -231 -121 -264 -144 -33 -22 -62 -40 -65 -40
-15 0 23 30 138 106 88 57 128 89 121 96 -12 12 -93 -35 -236 -137 -31 -22
-78 -56 -105 -75 -248 -176 -294 -216 -305 -260 -6 -21 -5 -23 6 -10 36 42
268 218 268 203 -1 -5 -21 -23 -46 -41 -76 -56 -40 -48 48 10 196 130 448 268
636 348 53 23 70 51 30 49 -13 -1 -114 -48 -226 -105z m-357 -204 c-3 -5 -11
-10 -16 -10 -6 0 -7 5 -4 10 3 6 11 10 16 10 6 0 7 -4 4 -10z"/>
<path d="M2510 3002 c0 -4 30 -25 68 -46 129 -72 258 -154 299 -190 20 -17 23
-17 29 -3 5 14 13 11 50 -18 25 -18 54 -45 65 -59 22 -28 39 -26 39 3 0 30
-147 151 -279 229 -42 24 -83 50 -91 57 -8 7 -30 15 -49 19 l-33 6 23 -20 24
-20 -30 6 c-16 4 -45 16 -63 26 -35 19 -52 23 -52 10z m175 -62 c3 -6 -1 -7
-9 -4 -18 7 -21 14 -7 14 6 0 13 -4 16 -10z"/>
<path d="M3256 2842 c-3 -6 -1 -34 5 -62 10 -49 8 -169 -6 -345 -4 -46 -3 -65
4 -55 17 27 43 194 43 280 1 104 -27 213 -46 182z"/>
<path d="M6655 2578 c-2 -7 -6 -22 -8 -33 -3 -14 -5 -12 -6 8 -1 21 -5 28 -18
25 -15 -3 -18 -13 -16 -63 1 -33 2 -68 2 -77 1 -30 20 -20 30 15 5 17 10 26
10 20 1 -18 28 -16 35 3 3 9 6 38 6 65 0 37 -4 49 -15 49 -9 0 -17 -6 -20 -12z"/>
<path d="M5120 2171 c0 -14 11 -21 48 -28 26 -6 64 -18 85 -27 20 -9 37 -12
37 -8 0 16 -45 49 -90 65 -59 22 -80 22 -80 -2z"/>
<path d="M6456 2078 c-20 -69 -23 -91 -19 -108 3 -12 10 -19 16 -17 10 3 35
77 40 117 3 18 -32 26 -37 8z"/>
<path d="M5234 2069 c-3 -5 0 -18 6 -30 7 -11 9 -32 6 -45 -9 -33 5 -30 49 11
32 28 35 35 22 41 -10 3 -17 11 -17 18 0 13 -58 17 -66 5z"/>
<path d="M3309 1638 c0 -2 -3 -46 -5 -98 -5 -85 -9 -104 -44 -178 -22 -46 -49
-97 -61 -113 -19 -28 -20 -30 -2 -52 39 -52 188 -126 209 -104 4 4 -9 22 -29
39 -20 18 -43 49 -51 68 -12 32 -11 43 10 114 27 92 30 142 10 243 -7 40 -11
75 -8 78 3 3 -2 5 -11 5 -9 0 -17 -1 -18 -2z m-5 -320 c-10 -35 -18 -80 -18
-100 0 -45 -5 -46 -43 -14 -24 21 -26 27 -16 43 7 10 30 53 50 95 43 87 55 76
27 -24z"/>
<path d="M3518 1383 c-8 -10 -36 -57 -62 -105 -46 -88 -48 -126 -2 -66 34 46
96 157 96 174 0 19 -14 18 -32 -3z"/>
<path d="M4313 1191 c-226 -113 -312 -150 -448 -196 -44 -15 -103 -37 -130
-49 -28 -13 -70 -27 -95 -31 -25 -3 -76 -16 -115 -28 -45 -13 -100 -21 -154
-21 -58 -1 -86 -5 -88 -13 -12 -34 76 -35 222 -2 164 38 244 63 405 126 47 18
89 33 93 33 5 0 45 17 90 39 103 49 223 101 232 101 4 0 27 -13 52 -30 24 -16
50 -30 57 -30 10 0 25 26 86 150 6 13 25 22 78 36 25 7 1 24 -33 24 -22 0
-104 -36 -252 -109z m161 16 c-4 -7 -16 -24 -26 -39 -19 -27 -20 -27 -49 -13
-16 9 -29 19 -29 24 0 10 92 50 103 44 4 -2 4 -10 1 -16z"/>
<path d="M3562 1241 c-74 -30 -102 -47 -102 -62 0 -5 6 -9 14 -9 18 0 124 49
131 61 4 5 14 9 24 9 9 0 26 7 37 15 18 14 18 14 -6 14 -14 0 -58 -13 -98 -28z"/>
</g>
</svg>
