<?xml version="1.0" standalone="no"?>
<!DOCTYPE svg PUBLIC "-//W3C//DTD SVG 20010904//EN"
 "http://www.w3.org/TR/2001/REC-SVG-20010904/DTD/svg10.dtd">
<svg version="1.0" xmlns="http://www.w3.org/2000/svg"
 width="900.000000pt" height="854.000000pt" viewBox="0 0 900.000000 854.000000"
 preserveAspectRatio="xMidYMid meet">

<g transform="translate(0.000000,854.000000) scale(0.100000,-0.100000)">
<path d="M7700 8421 c-56 -18 -98 -48 -243 -172 -803 -690 -1441 -1469 -1840
-2249 -49 -96 -92 -174 -96 -173 -3 1 -57 23 -119 48 -146 59 -380 119 -552
140 -183 24 -540 17 -715 -14 -306 -53 -566 -139 -804 -267 -46 -25 -84 -44
-85 -42 -244 524 -783 1405 -1390 2270 -152 216 -222 293 -280 303 -109 21
-165 -54 -242 -321 -129 -452 -179 -880 -178 -1544 0 -516 24 -870 95 -1425
53 -419 181 -1133 224 -1255 51 -145 60 -327 24 -506 -20 -104 -21 -124 -11
-185 14 -79 43 -147 81 -188 31 -33 99 -51 194 -51 l63 0 52 -182 c127 -436
296 -817 394 -888 47 -35 292 -143 373 -166 l60 -16 55 -112 c87 -177 148
-259 256 -351 119 -100 397 -308 444 -332 19 -10 51 -30 70 -44 55 -41 364
-217 449 -256 42 -19 159 -71 261 -115 l185 -81 125 -1 c108 -1 135 2 195 23
99 34 442 202 620 302 83 47 158 88 167 92 25 9 189 120 283 191 226 171 346
333 469 631 l42 100 54 8 c106 15 268 73 332 118 95 68 287 551 427 1076 l11
41 75 7 76 7 60 67 c74 81 136 201 152 294 17 103 1 180 -58 265 -87 128 -97
228 -40 394 300 871 477 2314 479 3913 l1 490 -25 59 c-14 33 -36 68 -50 78
-30 22 -85 31 -120 19z m103 -71 c42 -50 47 -103 47 -549 l0 -417 -36 -35
c-19 -18 -61 -65 -91 -102 -55 -67 -56 -68 -50 -120 6 -57 51 -179 72 -197 18
-15 40 -2 66 36 l19 29 -1 -105 c-1 -58 -4 -118 -8 -135 -6 -29 -8 -27 -49 52
-23 45 -55 91 -70 103 l-27 21 -16 -20 c-29 -35 -44 -154 -30 -241 15 -94 37
-140 112 -229 l60 -72 -16 -187 c-30 -349 -32 -357 -34 -164 -1 158 -3 174
-21 192 -25 25 -62 26 -83 3 -23 -27 -55 -114 -83 -227 -32 -132 -31 -166 3
-207 45 -53 153 -90 166 -56 4 8 6 7 6 -3 1 -20 -28 -252 -31 -254 -37 -15
-44 -30 -80 -172 -21 -82 -37 -158 -37 -169 0 -11 12 -38 28 -59 l27 -39 -17
-104 c-33 -193 -124 -621 -135 -632 -1 -2 -22 13 -45 33 -24 20 -52 36 -64 36
-20 0 -23 -7 -28 -67 -4 -38 -7 -93 -7 -123 0 -52 2 -57 39 -90 l40 -35 -46
-130 c-40 -116 -45 -140 -46 -220 0 -105 22 -176 80 -252 19 -25 39 -60 44
-77 23 -81 0 -245 -41 -286 -19 -19 -24 -19 -327 -38 l-122 -7 25 26 c20 21
28 43 36 105 17 141 -3 198 -70 192 -33 -3 -36 -6 -77 -99 -23 -52 -54 -114
-69 -136 -19 -29 -27 -51 -24 -74 l3 -34 -64 -8 c-35 -4 -66 -5 -69 -3 -3 3
18 41 47 84 l51 78 3 110 c2 106 1 109 -20 112 -13 2 -46 -9 -75 -25 -64 -35
-256 -217 -275 -260 -7 -18 -13 -59 -13 -92 0 -55 -2 -61 -22 -66 -13 -3 -63
-14 -113 -25 -49 -11 -139 -34 -198 -51 -60 -17 -111 -29 -113 -26 -2 2 4 23
15 47 11 24 17 49 14 56 -11 29 -74 57 -130 58 l-55 1 -13 -48 c-7 -27 -23
-63 -36 -80 -15 -21 -24 -48 -25 -77 -2 -40 -5 -45 -35 -56 l-34 -11 -1 66
c-1 36 -10 90 -20 120 l-19 54 -120 33 c-66 19 -129 34 -141 34 -24 0 -81 -42
-118 -87 l-26 -31 71 -134 c40 -73 74 -135 75 -137 2 -2 18 -7 36 -10 33 -7
32 -8 -59 -54 -51 -26 -94 -47 -95 -47 -2 0 -1 23 0 50 4 48 2 53 -41 95 -24
25 -49 45 -56 45 -12 0 -52 -74 -71 -133 -16 -52 -6 -85 32 -101 l31 -14 -29
-17 c-108 -67 -262 -173 -319 -220 -40 -32 -75 -53 -84 -51 -9 3 -51 15 -93
27 -49 14 -79 28 -82 38 -13 41 -27 285 -21 361 9 122 32 253 60 345 19 63 39
100 92 170 87 118 342 371 466 464 192 143 420 272 629 354 87 35 103 45 165
110 132 138 191 226 383 577 632 1155 1110 2312 1345 3259 68 274 89 381 77
393 -17 17 -40 2 -47 -31 -4 -20 -19 -38 -42 -52 -54 -34 -239 -174 -338 -258
-208 -175 -546 -526 -747 -776 -281 -350 -593 -822 -808 -1225 -45 -85 -86
-159 -90 -163 -11 -12 -50 10 -50 28 0 8 35 83 78 167 249 487 626 1017 1060
1490 239 262 608 614 850 811 127 104 189 122 235 67z m-6158 -184 c114 -116
752 -1070 1087 -1626 194 -321 468 -827 468 -863 0 -8 -11 -22 -25 -31 l-24
-16 -115 228 c-334 661 -776 1380 -1247 2029 -69 95 -119 174 -121 190 -2 20
-9 28 -23 28 -19 0 -20 -6 -19 -130 4 -467 304 -1431 822 -2640 282 -659 371
-829 560 -1063 103 -128 179 -190 330 -266 233 -119 417 -254 618 -453 172
-170 371 -419 475 -594 l41 -68 -18 -98 c-18 -104 -22 -377 -7 -483 l8 -55
-109 -53 c-92 -46 -116 -53 -148 -49 -67 9 -142 54 -210 124 -34 37 -111 116
-171 177 -77 79 -106 115 -101 128 11 36 -20 102 -77 161 -66 69 -84 68 -93
-4 l-7 -50 -52 31 c-29 17 -104 57 -167 87 -135 66 -127 60 -112 75 30 30 4
118 -48 161 -27 23 -35 25 -48 15 -20 -17 -52 -87 -52 -115 0 -25 -14 -28 -56
-13 -21 8 -24 14 -16 22 8 8 12 49 12 112 0 79 -4 108 -20 141 -19 39 -124
155 -140 155 -36 0 -120 -137 -120 -195 0 -14 16 -60 35 -102 19 -42 34 -77
32 -79 -1 -1 -45 4 -97 12 -52 7 -114 14 -136 14 -36 0 -43 3 -48 25 -9 37
-74 105 -100 105 -20 0 -63 -55 -79 -103 -5 -14 -19 -17 -84 -17 l-78 0 31 19
c17 10 48 40 70 67 36 43 39 52 38 103 -2 59 -22 119 -49 141 -9 7 -29 13 -45
12 -43 -1 -135 -46 -154 -74 -25 -39 -38 -114 -26 -158 11 -39 68 -100 95
-100 8 0 15 -4 15 -10 0 -5 -24 -10 -52 -10 -68 0 -308 -35 -416 -60 -46 -11
-90 -20 -97 -20 -20 0 -45 92 -45 164 0 34 7 86 15 116 8 30 18 88 21 129 7
73 7 73 22 45 22 -43 53 -74 75 -74 25 0 114 93 157 166 30 50 35 68 38 134 4
97 -17 143 -66 148 -43 4 -82 -21 -165 -107 -38 -39 -69 -65 -71 -58 -44 160
-67 250 -63 253 2 2 12 -5 22 -16 24 -27 48 -25 94 5 54 36 77 96 116 306 15
84 15 88 -5 139 -12 30 -48 102 -81 162 -50 88 -65 108 -83 108 -31 0 -110
-71 -144 -128 -15 -26 -28 -40 -29 -32 -28 174 -64 408 -69 453 -6 53 -5 57
14 57 24 0 52 43 77 119 14 43 17 74 12 150 -6 101 -37 245 -56 264 -17 17
-40 -1 -77 -56 l-31 -47 -17 203 c-17 211 -36 511 -35 562 0 17 13 -44 29
-135 48 -275 53 -295 75 -295 19 0 20 9 23 155 4 186 -13 452 -31 489 -15 32
-52 39 -78 15 -19 -17 -19 -13 -18 227 1 288 6 327 53 440 42 102 62 211 52
293 -6 45 -12 59 -27 63 -22 6 -23 22 -8 111 l12 66 29 -64 c16 -35 34 -68 41
-72 40 -26 90 146 90 312 1 130 -14 200 -41 200 -10 0 -23 -5 -29 -11 -16 -16
48 195 74 246 55 106 114 116 198 31z m6102 -2393 c-3 -10 -5 -4 -5 12 0 17 2
24 5 18 2 -7 2 -21 0 -30z m-3470 -262 c47 -22 63 -45 63 -92 0 -47 -86 -128
-166 -158 -214 -81 -396 18 -277 150 20 22 55 51 77 64 91 53 228 69 303 36z
m-246 -623 c52 -15 117 -73 140 -122 45 -99 9 -213 -105 -333 -119 -127 -222
-161 -331 -109 -127 60 -192 198 -154 326 25 84 134 191 234 230 57 22 158 26
216 8z m-1491 -2458 c191 -562 304 -854 425 -1095 l70 -140 175 -132 c96 -72
213 -155 260 -184 269 -166 360 -218 497 -285 189 -92 216 -95 274 -32 22 24
51 55 64 70 43 45 105 60 262 65 133 5 144 4 177 -17 36 -21 146 -136 146
-151 0 -14 57 -39 88 -39 30 0 123 46 282 138 213 124 427 282 580 429 74 70
84 85 168 251 141 277 269 577 388 907 30 83 59 159 65 170 5 11 34 94 64 185
l54 165 37 9 c23 5 39 5 43 -1 18 -29 177 -81 194 -64 12 12 -35 36 -118 59
l-66 18 130 19 c72 10 134 16 137 12 3 -3 -17 -74 -44 -159 -97 -295 -148
-484 -179 -661 -15 -82 -12 -118 6 -89 4 7 16 48 26 90 35 148 148 525 165
547 4 6 27 69 50 140 23 72 47 136 53 143 12 16 77 16 77 0 0 -17 -44 -179
-91 -338 -79 -262 -185 -516 -275 -657 -24 -37 -47 -59 -81 -76 -62 -32 -196
-76 -250 -84 l-42 -6 60 154 c82 212 126 378 73 277 -48 -89 -86 -178 -149
-338 -167 -430 -228 -543 -375 -691 -52 -52 -138 -128 -191 -167 -268 -199
-741 -463 -968 -539 -93 -32 -121 -37 -232 -41 l-126 -5 -144 58 c-79 32 -165
68 -191 81 -26 13 -53 24 -60 24 -35 0 -428 230 -570 333 -210 154 -330 245
-427 327 -96 81 -114 101 -169 193 -34 57 -87 157 -118 223 -205 432 -234 487
-234 435 0 -23 83 -247 116 -313 14 -27 20 -48 15 -48 -18 0 -149 53 -261 106
-116 55 -116 55 -157 122 -92 150 -172 338 -261 612 -60 183 -105 340 -100
345 2 2 22 7 45 11 40 6 42 5 56 -27 19 -44 197 -582 237 -716 33 -109 57
-139 46 -55 -16 121 -81 366 -149 562 -41 118 -78 223 -82 233 -7 16 4 17 185
15 l193 -3 127 -375z m337 309 c222 -56 383 -127 472 -207 l55 -49 -24 -49
c-20 -40 -25 -65 -25 -134 0 -73 4 -93 28 -142 32 -65 90 -121 156 -151 101
-47 266 -20 337 54 15 16 32 29 38 29 13 0 156 -93 156 -102 0 -4 -25 -33 -57
-64 l-56 -57 -106 6 c-125 8 -370 45 -531 82 -106 24 -118 29 -158 68 -57 55
-194 238 -267 357 -58 95 -205 375 -205 392 0 11 45 3 187 -33z m3427 -76
c-40 -185 -142 -388 -288 -570 -35 -43 -52 -55 -111 -77 -223 -80 -553 -152
-726 -157 -69 -2 -107 18 -174 93 -73 82 -73 79 -5 138 l59 51 30 -33 c50 -58
124 -91 212 -96 100 -6 162 14 229 75 96 87 134 217 95 332 -9 29 -15 54 -14
55 26 23 340 127 544 180 162 43 157 43 149 9z m-1584 -699 c50 -5 78 -2 124
14 l60 20 75 -77 c42 -43 93 -85 115 -95 41 -19 53 -19 254 10 57 8 111 13
120 10 9 -3 35 -23 58 -43 41 -38 41 -38 47 -130 17 -241 -44 -587 -147 -833
l-36 -85 -113 -66 c-61 -36 -153 -88 -203 -114 -85 -45 -94 -47 -120 -36 -16
7 -47 36 -69 64 -22 28 -63 70 -91 92 -48 40 -55 42 -135 48 -106 8 -227 -5
-304 -34 -44 -16 -74 -38 -122 -86 -70 -72 -61 -70 -168 -26 -158 66 -418 212
-442 249 -22 34 -98 257 -128 375 -51 199 -95 541 -75 578 5 10 31 29 59 45
l51 27 102 -15 c57 -9 152 -20 213 -25 101 -9 112 -8 141 10 33 20 94 83 112
115 9 15 13 17 23 7 18 -18 127 -16 203 3 35 9 89 30 121 48 l58 32 76 -38
c56 -29 93 -40 141 -44z"/>
<path d="M7702 7588 c-42 -121 -42 -121 -24 -152 12 -21 26 -31 42 -31 28 0
55 41 95 146 28 73 25 100 -16 138 -43 40 -53 30 -97 -101z"/>
<path d="M7388 6491 c-58 -77 -88 -127 -88 -144 0 -86 48 -202 96 -234 24 -15
27 -15 52 4 42 31 94 143 99 216 5 53 -14 194 -33 260 -11 37 -41 13 -126
-102z"/>
<path d="M7277 5963 c-3 -5 -8 -52 -12 -106 l-7 -97 35 -35 c21 -21 41 -33 50
-29 20 7 57 95 57 134 0 56 -103 167 -123 133z"/>
<path d="M7067 5789 c-28 -48 -49 -110 -70 -204 -18 -77 -5 -133 45 -201 43
-59 114 -118 132 -111 30 12 96 193 96 263 0 47 -51 243 -69 265 -11 14 -33
23 -63 26 -45 5 -46 5 -71 -38z"/>
<path d="M7432 5663 c-129 -155 -141 -245 -43 -322 50 -40 145 -85 164 -78 19
7 54 99 66 178 9 54 8 68 -8 105 -32 71 -100 164 -120 164 -11 0 -37 -21 -59
-47z"/>
<path d="M6906 5341 c-21 -23 -62 -149 -71 -217 -6 -44 -4 -51 19 -73 40 -37
90 -34 127 7 28 31 29 37 29 130 0 53 -3 114 -6 135 -6 35 -9 37 -44 37 -24 0
-43 -7 -54 -19z"/>
<path d="M7474 5181 c-25 -11 -78 -70 -100 -113 -14 -26 -16 -70 -16 -291 1
-260 1 -261 25 -284 12 -13 39 -26 59 -29 34 -6 37 -4 61 37 29 49 58 149 82
283 16 83 16 95 0 180 -22 120 -56 220 -75 223 -8 1 -24 -2 -36 -6z"/>
<path d="M7103 5058 c-39 -41 -87 -118 -143 -226 -48 -94 -49 -115 -7 -205 27
-60 121 -177 142 -177 23 0 93 90 115 148 32 86 34 134 11 274 -39 227 -55
252 -118 186z"/>
<path d="M6724 5012 c-22 -22 -68 -124 -83 -184 -6 -26 -14 -81 -18 -123 -6
-70 -4 -76 21 -110 40 -52 58 -46 94 33 59 127 75 245 47 339 -17 57 -36 71
-61 45z"/>
<path d="M6860 4509 c-114 -31 -200 -90 -200 -138 0 -19 44 -85 76 -113 28
-24 102 -56 150 -64 62 -9 68 5 69 156 0 112 -2 130 -19 149 -21 23 -25 24
-76 10z"/>
<path d="M7181 4404 c-17 -14 -49 -57 -72 -94 l-40 -68 -4 -133 c-2 -74 -10
-166 -18 -205 -17 -83 -7 -113 42 -134 70 -29 128 19 194 159 47 101 54 140
37 234 -18 106 -72 261 -91 265 -9 2 -31 -9 -48 -24z"/>
<path d="M6401 4360 c-47 -65 -83 -145 -79 -177 3 -25 9 -29 48 -37 34 -6 54
-5 82 7 32 13 39 23 52 68 20 65 21 143 3 158 -8 6 -28 14 -45 17 -27 6 -33 2
-61 -36z"/>
<path d="M6612 4123 c-36 -18 -81 -70 -108 -125 -17 -36 -17 -39 2 -80 23 -51
111 -163 187 -237 51 -49 58 -53 90 -47 19 3 51 21 71 39 37 31 38 34 37 100
0 38 -8 109 -17 158 -18 101 -37 127 -128 179 -58 34 -87 37 -134 13z"/>
<path d="M6190 3898 c-29 -34 -56 -72 -60 -84 -7 -18 -14 -156 -11 -211 1 -19
101 -46 170 -47 63 -1 65 0 84 33 29 48 36 176 12 236 -19 51 -97 135 -125
135 -10 0 -41 -27 -70 -62z"/>
<path d="M6914 3663 c-62 -96 -74 -124 -74 -170 l0 -36 51 6 c28 4 67 14 87
24 32 16 42 29 74 108 40 99 39 116 -13 134 -62 21 -72 16 -125 -66z"/>
<path d="M5830 3631 c-41 -43 -102 -176 -105 -229 -2 -32 -7 -36 -136 -101
-74 -37 -160 -84 -193 -105 -46 -30 -60 -35 -67 -25 -16 25 -5 41 46 68 27 14
52 30 53 34 2 4 26 23 53 41 46 30 58 52 21 39 -10 -4 -3 11 17 40 29 40 33
51 26 84 -12 64 -46 133 -65 133 -18 0 -100 -83 -151 -153 -45 -62 -48 -161
-6 -188 5 -4 -2 -15 -17 -24 -22 -15 -31 -16 -57 -5 -28 12 -32 11 -60 -16
-16 -15 -37 -45 -46 -67 -12 -26 -47 -62 -109 -112 -131 -107 -309 -295 -279
-295 2 0 51 42 108 93 57 50 138 120 180 155 l76 63 7 -27 c5 -20 2 -31 -12
-41 -35 -26 -125 -116 -120 -121 3 -2 37 19 76 48 41 30 84 54 100 55 36 3 83
36 109 78 22 36 152 120 335 217 94 50 120 60 127 49 5 -8 9 -18 9 -24 0 -22
73 -115 90 -115 44 0 148 169 158 256 5 50 -17 123 -58 188 -37 58 -60 59
-110 7z"/>
<path d="M6409 3468 c-9 -7 -24 -35 -34 -63 -10 -27 -22 -54 -26 -59 -16 -17
-10 -63 12 -90 25 -31 75 -35 109 -8 38 30 55 186 24 216 -19 19 -64 21 -85 4z"/>
<path d="M7153 3464 c-3 -9 4 -75 16 -147 12 -73 21 -141 21 -153 0 -11 9 -29
20 -39 17 -15 23 -16 51 -5 17 7 37 23 46 36 12 19 52 151 53 175 0 13 -77 99
-110 124 -39 28 -88 33 -97 9z"/>
<path d="M6116 3305 c-70 -58 -138 -112 -151 -121 -42 -28 -63 -125 -34 -160
33 -40 66 -46 177 -34 134 14 191 25 204 38 7 7 11 53 10 114 -1 113 -27 221
-60 252 -18 16 -25 12 -146 -89z"/>
<path d="M4957 3236 c-32 -30 -106 -142 -113 -173 -11 -42 3 -71 42 -83 32
-11 38 -10 59 10 52 49 95 218 65 255 -17 20 -23 19 -53 -9z"/>
<path d="M5618 3187 c-39 -34 -78 -93 -78 -117 0 -8 25 -35 55 -58 74 -58 98
-55 138 17 l30 53 -24 45 c-26 48 -63 93 -76 93 -4 -1 -24 -15 -45 -33z"/>
<path d="M4850 2664 c-98 -103 -113 -141 -108 -260 2 -52 9 -99 15 -105 16
-16 76 15 114 59 56 64 83 136 87 239 5 102 -2 143 -22 143 -7 0 -46 -34 -86
-76z"/>
<path d="M1413 7277 c-57 -65 -68 -199 -24 -286 36 -70 100 -142 124 -139 35
5 68 82 70 165 2 66 -1 75 -53 179 -31 62 -62 110 -71 112 -9 2 -30 -13 -46
-31z"/>
<path d="M1282 6917 c-16 -19 -31 -127 -38 -280 l-7 -138 29 -30 c33 -35 113
-79 144 -79 38 0 82 52 90 106 12 74 -5 159 -40 203 -16 20 -46 72 -66 116
-20 44 -43 88 -52 98 -18 20 -45 22 -60 4z"/>
<path d="M1605 6780 c-19 -38 -30 -142 -21 -204 6 -36 18 -57 58 -101 28 -31
59 -55 70 -55 45 0 68 164 29 218 -10 15 -35 60 -55 100 -20 40 -43 72 -51 72
-8 0 -22 -14 -30 -30z"/>
<path d="M1530 6313 c-71 -86 -104 -210 -98 -364 l4 -95 100 -155 c56 -85 108
-155 117 -157 34 -7 147 237 155 335 4 60 3 64 -55 175 -106 200 -164 298
-178 298 -7 0 -27 -17 -45 -37z"/>
<path d="M1893 5853 c-48 -70 -54 -118 -22 -169 25 -41 71 -75 87 -65 15 9 50
89 52 121 5 60 -1 83 -29 111 -37 36 -64 37 -88 2z"/>
<path d="M1889 5527 c-55 -37 -99 -103 -99 -148 0 -87 74 -230 164 -318 l46
-45 44 46 c84 88 103 218 48 331 -34 69 -118 157 -150 157 -11 0 -34 -10 -53
-23z"/>
<path d="M1641 5243 c-79 -90 -160 -287 -195 -472 -18 -95 180 -160 249 -82
76 85 136 170 141 200 11 56 -3 182 -26 243 -29 78 -80 152 -106 156 -15 2
-34 -11 -63 -45z"/>
<path d="M2198 5133 c-18 -31 -43 -144 -53 -238 l-7 -60 61 -52 c33 -29 67
-53 77 -53 29 0 100 84 123 145 l22 57 -20 62 c-11 33 -24 74 -29 90 -12 41
-52 68 -109 73 -44 5 -49 3 -65 -24z"/>
<path d="M1992 4933 c-27 -4 -36 -11 -48 -38 -8 -19 -14 -56 -14 -83 0 -58 27
-89 82 -98 43 -7 74 20 84 73 13 69 -18 155 -54 151 -9 0 -32 -3 -50 -5z"/>
<path d="M1833 4658 c-28 -31 -57 -91 -77 -157 -27 -92 -27 -93 76 -157 51
-31 99 -57 107 -58 21 -1 53 89 54 154 1 59 -9 83 -72 182 -39 63 -57 70 -88
36z"/>
<path d="M2210 4572 c-79 -82 -83 -96 -88 -271 l-4 -153 78 -79 c43 -43 86
-79 96 -79 9 0 29 15 43 34 30 40 85 185 85 225 0 69 -115 364 -144 369 -11 3
-36 -15 -66 -46z"/>
<path d="M2541 4344 c-33 -42 -61 -147 -61 -228 0 -83 7 -113 26 -120 41 -16
142 147 152 244 4 47 3 52 -36 90 -22 22 -44 40 -50 40 -6 0 -20 -12 -31 -26z"/>
<path d="M2010 4000 c-37 -69 -30 -201 15 -293 98 -199 206 -181 231 38 5 48
3 53 -41 113 -107 146 -177 194 -205 142z"/>
<path d="M2718 4003 c-16 -19 -38 -75 -62 -161 l-15 -53 73 -122 c40 -67 81
-137 90 -154 31 -61 83 -39 147 60 45 70 47 89 23 241 -21 131 -30 141 -163
185 -77 25 -74 25 -93 4z"/>
<path d="M2431 3672 c-16 -30 -41 -169 -41 -229 0 -78 14 -124 53 -175 91
-120 204 -118 228 4 12 63 11 156 -3 181 -16 31 -165 204 -191 222 -28 19 -34
19 -46 -3z"/>
<path d="M3121 3628 c-16 -35 -33 -75 -36 -90 -6 -24 -11 -26 -38 -22 l-32 5
27 -20 c18 -15 24 -27 21 -42 -3 -11 3 -70 12 -132 21 -126 40 -159 89 -150
33 7 123 86 139 123 l12 28 195 -125 c107 -68 201 -131 209 -138 13 -13 12
-21 -7 -67 -50 -120 -9 -248 79 -248 31 0 107 77 140 142 11 21 22 38 25 38 4
0 34 -23 68 -52 33 -29 69 -58 79 -67 13 -11 17 -11 17 -1 0 7 -36 49 -80 94
l-80 82 0 71 c0 126 -40 193 -116 193 -42 0 -43 0 -59 -50 -9 -27 -19 -50 -23
-50 -5 0 -104 74 -135 100 -5 4 0 25 11 46 11 22 25 63 33 93 12 50 12 56 -8
90 -11 20 -37 49 -56 64 -29 24 -38 27 -55 18 -26 -14 -82 -125 -82 -164 0
-22 -4 -28 -15 -23 -46 18 -48 17 -17 -16 21 -22 32 -43 30 -56 -3 -19 -9 -17
-76 25 l-73 46 7 114 c7 111 6 114 -17 140 -29 31 -94 62 -131 63 -23 0 -31
-8 -57 -62z m557 -468 c39 -30 71 -61 72 -69 0 -16 7 -20 -123 79 -52 39 -81
67 -74 72 6 4 21 -1 33 -10 12 -9 54 -42 92 -72z"/>
<path d="M1853 3366 c-72 -66 -148 -194 -139 -231 12 -46 57 -86 116 -101 48
-12 55 -12 72 3 28 26 70 168 71 243 0 71 -23 140 -47 140 -8 0 -41 -24 -73
-54z"/>
<path d="M3359 3199 c-12 -12 -35 -51 -51 -87 -34 -74 -32 -90 20 -231 30 -81
55 -101 127 -101 46 0 54 20 62 165 7 125 -2 151 -72 233 -41 47 -56 51 -86
21z"/>
<path d="M3868 2758 c-7 -25 -13 -95 -13 -163 0 -110 2 -124 25 -165 27 -48
80 -90 115 -90 50 0 97 101 111 236 l7 65 -39 41 c-46 48 -150 118 -175 118
-13 0 -22 -13 -31 -42z"/>
<path d="M4160 2455 c-11 -26 -23 -64 -26 -85 -13 -78 53 -199 94 -174 57 35
69 159 23 245 -39 73 -64 77 -91 14z"/>
<path d="M2150 2764 c-8 -3 -22 -8 -30 -10 -33 -11 17 -24 95 -24 81 0 119 10
95 25 -16 10 -140 17 -160 9z"/>
<path d="M2198 2683 c-26 -7 -22 -22 8 -29 33 -8 96 6 102 24 3 8 -10 12 -45
11 -26 -1 -56 -3 -65 -6z"/>
<path d="M6670 2660 c0 -14 29 -27 78 -35 34 -5 42 -4 42 9 0 9 -15 19 -37 25
-48 14 -83 14 -83 1z"/>
<path d="M2263 2600 c-35 -14 -27 -30 13 -30 38 0 74 15 74 30 0 12 -57 12
-87 0z"/>
<path d="M6630 2581 c0 -13 58 -31 101 -31 50 0 50 16 2 29 -47 13 -103 14
-103 2z"/>
<path d="M4395 1678 c-2 -7 -18 -60 -34 -118 -16 -58 -43 -131 -60 -163 -16
-32 -28 -63 -25 -71 6 -14 172 -68 186 -60 13 8 9 32 -13 76 -19 38 -21 55
-18 192 4 137 2 151 -14 154 -9 2 -19 -2 -22 -10z m-10 -257 c-4 -27 -2 -49 9
-69 l15 -30 -39 10 c-22 6 -40 14 -40 19 0 10 53 109 58 109 2 0 1 -18 -3 -39z"/>
<path d="M4780 1217 c-41 -28 -169 -50 -380 -67 -114 -9 -142 -8 -178 4 -55
20 -54 4 1 -23 70 -34 288 -27 462 15 54 13 78 26 110 55 45 43 37 51 -15 16z"/>
<path d="M4505 959 c-61 -9 -185 -55 -185 -69 0 -4 35 3 78 17 49 16 111 27
170 31 51 2 90 8 85 12 -14 13 -87 17 -148 9z"/>
</g>
</svg>
