<?xml version="1.0" standalone="no"?>
<!DOCTYPE svg PUBLIC "-//W3C//DTD SVG 20010904//EN"
 "http://www.w3.org/TR/2001/REC-SVG-20010904/DTD/svg10.dtd">
<svg version="1.0" xmlns="http://www.w3.org/2000/svg"
 width="420.000000pt" height="604.000000pt" viewBox="0 0 420.000000 604.000000"
 preserveAspectRatio="xMidYMid meet">

<g transform="translate(0.000000,604.000000) scale(0.100000,-0.100000)">
<path d="M3225 5985 c-172 -31 -317 -83 -484 -172 -231 -124 -464 -302 -637
-487 -112 -120 -260 -314 -302 -395 -15 -31 -53 -101 -84 -156 -107 -191 -173
-357 -238 -599 -33 -123 -68 -271 -77 -328 l-17 -105 -76 -36 c-278 -135 -514
-330 -679 -562 -78 -109 -119 -195 -165 -346 -44 -146 -60 -285 -54 -462 l5
-138 -36 -27 c-85 -62 -135 -109 -170 -156 -67 -91 -73 -109 -66 -194 8 -86
37 -224 62 -292 24 -66 90 -168 142 -222 39 -42 58 -52 150 -82 59 -19 140
-40 181 -46 41 -6 78 -14 81 -18 4 -4 26 -54 49 -112 108 -266 199 -387 414
-548 200 -150 479 -332 613 -399 l115 -58 186 0 187 0 99 48 c275 132 650 439
805 657 101 142 139 210 197 353 29 72 57 133 61 137 4 4 73 33 152 64 236 94
279 132 346 306 68 174 80 321 35 395 -33 52 -173 182 -225 208 l-50 25 3 103
c5 174 -40 407 -113 585 -19 45 -73 142 -121 215 -72 111 -109 156 -216 261
-148 145 -257 222 -428 304 -63 30 -122 59 -130 63 -8 4 -16 23 -18 42 -10
124 -60 322 -132 524 -27 74 -34 109 -38 201 -4 107 -3 115 36 250 68 229 143
398 250 558 64 96 217 253 305 314 173 119 410 204 446 160 6 -7 22 -27 36
-45 33 -41 82 -57 159 -50 50 5 65 10 84 32 25 30 23 51 -10 97 -28 41 -187
115 -281 133 -94 18 -256 18 -352 0z m400 -45 c132 -41 225 -105 225 -154 0
-20 -40 -31 -107 -30 -55 0 -96 25 -108 65 -7 22 -57 43 -101 41 -51 -2 -208
-57 -294 -103 -288 -155 -520 -458 -650 -847 -105 -317 -106 -379 -5 -677 94
-278 115 -429 115 -827 0 -150 4 -257 9 -254 21 13 33 176 29 374 -2 111 -1
202 2 202 3 0 51 -23 108 -50 496 -238 812 -667 862 -1169 11 -106 4 -281 -18
-489 -5 -40 -5 -75 -1 -78 15 -9 49 149 49 222 0 24 4 44 9 44 20 0 134 -85
179 -134 92 -101 107 -168 73 -330 -22 -107 -71 -222 -123 -287 -24 -31 -55
-52 -116 -81 -108 -50 -254 -109 -259 -104 -2 2 3 30 11 62 20 80 31 182 18
169 -5 -5 -24 -61 -42 -124 -62 -221 -143 -401 -257 -574 -133 -199 -516 -524
-795 -672 -113 -60 -208 -74 -387 -58 l-120 10 -113 63 c-139 76 -410 256
-583 387 -210 158 -291 274 -451 645 -40 94 -75 173 -78 176 -16 15 -13 -12 8
-81 l24 -77 -42 6 c-67 9 -206 45 -251 64 -131 56 -266 338 -269 561 -1 85 0
87 39 145 22 32 76 88 120 126 l80 68 8 -42 c15 -78 57 -208 68 -208 5 0 7 10
4 23 -108 485 -50 859 188 1212 84 124 274 312 402 397 78 51 271 158 287 158
2 0 1 -53 0 -117 -4 -125 10 -315 33 -448 17 -97 57 -227 62 -203 3 9 -8 93
-23 185 -36 225 -44 495 -19 679 31 237 119 543 220 767 245 543 650 975 1153
1230 171 87 312 133 497 161 73 11 261 -3 330 -24z"/>
<path d="M964 3436 c-40 -60 -41 -92 -2 -77 32 12 59 53 61 91 3 51 -19 46
-59 -14z"/>
<path d="M3126 3431 c-10 -16 63 -71 94 -71 44 0 38 25 -13 55 -45 26 -72 31
-81 16z"/>
<path d="M1020 3180 c0 -11 -15 -34 -34 -50 -40 -36 -54 -76 -32 -98 33 -33
91 40 98 123 2 31 -1 40 -14 43 -13 2 -18 -3 -18 -18z"/>
<path d="M3040 3179 c0 -18 51 -78 85 -99 34 -21 95 -27 95 -10 0 35 -66 90
-108 90 -11 0 -25 7 -32 15 -14 17 -40 20 -40 4z"/>
<path d="M2706 3020 c-3 -8 -17 -49 -32 -90 -40 -113 -116 -261 -206 -398 -45
-67 -78 -125 -75 -128 6 -7 103 113 150 187 86 135 189 390 174 431 -3 10 -6
9 -11 -2z"/>
<path d="M1200 2781 c0 -20 -6 -32 -19 -36 -10 -3 -31 -17 -45 -30 -29 -27
-36 -82 -11 -91 21 -8 70 30 89 70 21 44 22 116 1 116 -10 0 -15 -10 -15 -29z"/>
<path d="M2924 2795 c-9 -21 13 -79 39 -103 27 -25 75 -45 89 -36 15 9 1 65
-23 90 -12 12 -34 28 -50 34 -16 7 -29 16 -29 21 0 15 -20 10 -26 -6z"/>
<path d="M755 2232 c0 -146 -2 -162 -27 -235 -45 -125 -35 -222 30 -291 33
-35 117 -76 157 -76 62 -1 70 -8 105 -93 42 -104 112 -245 136 -275 18 -21 34
-23 269 -42 138 -11 284 -25 325 -30 79 -10 89 -6 119 47 7 13 15 13 58 0 52
-16 91 -12 144 13 20 9 32 9 47 1 38 -20 152 -14 201 11 28 15 45 19 48 12 2
-6 10 -19 17 -29 13 -18 22 -18 262 8 137 15 281 30 321 33 l71 7 41 92 c22
51 53 131 68 179 27 83 29 86 63 92 110 19 177 63 211 138 25 55 23 91 -7 156
-25 54 -53 215 -54 307 0 71 -17 57 -24 -20 -9 -95 8 -217 39 -285 40 -87 31
-145 -32 -203 -43 -41 -64 -48 -180 -64 -161 -23 -336 -99 -725 -316 -162 -91
-182 -99 -230 -99 -29 0 -64 6 -78 13 -23 11 -26 20 -31 92 -9 118 -19 175
-31 175 -7 0 -9 -44 -7 -132 l4 -132 -25 -13 c-57 -29 -85 -19 -659 242 -215
97 -300 125 -429 143 -119 17 -182 61 -206 143 -17 57 -12 106 21 204 21 64
27 99 27 175 1 91 -18 210 -32 210 -4 0 -7 -71 -7 -158z"/>
<path d="M3944 1933 c-54 -127 -110 -325 -120 -431 -10 -104 8 -67 60 123 25
94 57 209 70 258 25 89 19 117 -10 50z"/>
<path d="M2545 1929 c-112 -48 -376 -212 -362 -225 2 -3 63 31 134 75 72 44
168 98 214 121 91 46 94 48 88 54 -2 3 -35 -9 -74 -25z"/>
<path d="M1480 1942 c0 -4 35 -23 78 -44 42 -20 137 -73 211 -117 74 -45 136
-79 138 -77 8 7 -145 110 -236 158 -96 52 -191 92 -191 80z"/>
<path d="M2635 1920 c-98 -31 -376 -183 -361 -197 2 -2 73 34 158 79 85 46
180 92 211 103 32 10 57 23 57 27 0 4 -1 8 -2 7 -2 0 -30 -9 -63 -19z"/>
<path d="M1695 1879 c38 -22 114 -72 168 -111 54 -38 100 -68 103 -66 12 13
-181 157 -261 194 -80 38 -86 28 -10 -17z"/>
<path d="M220 1843 c43 -156 161 -476 183 -498 18 -18 -3 66 -54 219 -57 171
-128 346 -140 346 -4 0 1 -30 11 -67z"/>
<path d="M2155 1204 c-58 -28 -92 -30 -142 -9 -48 20 -63 18 -35 -5 63 -52
170 -43 226 19 24 27 14 26 -49 -5z"/>
<path d="M2620 1214 c-162 -14 -200 -14 -250 2 -23 7 -24 6 -11 -10 30 -36 45
-37 303 -16 139 11 276 24 303 29 84 14 -156 11 -345 -5z"/>
<path d="M1848 1188 c-25 -20 -32 -20 -230 -9 -238 13 -461 15 -454 3 5 -8
495 -37 625 -37 47 0 56 3 74 27 26 35 20 42 -15 16z"/>
<path d="M1890 1130 c11 -21 48 -45 57 -37 5 6 -48 57 -60 57 -4 0 -3 -9 3
-20z"/>
<path d="M2230 1130 c-23 -18 -23 -20 -5 -19 20 0 55 21 55 33 0 12 -25 5 -50
-14z"/>
<path d="M2597 1104 c-38 -21 -28 -28 20 -15 55 16 87 -9 91 -70 4 -61 13 -81
22 -49 17 54 11 91 -19 121 -33 33 -70 37 -114 13z"/>
<path d="M1485 1078 c-29 -16 -35 -28 -35 -70 0 -51 14 -48 26 5 8 39 11 42
46 45 20 2 51 -4 68 -13 43 -22 48 -13 10 19 -34 28 -80 34 -115 14z"/>
<path d="M2615 1010 c-71 -79 -351 -129 -650 -117 -174 8 -242 23 -342 77 -40
22 -73 36 -73 31 0 -21 140 -99 220 -123 74 -22 502 -18 610 6 132 29 212 66
247 116 20 28 11 36 -12 10z"/>
</g>
</svg>
